<?xml version="1.0" encoding="utf-8"?>
<!-- Svg Vector Icons : http://www.onlinewebfonts.com/icon -->
<!DOCTYPE svg PUBLIC "-//W3C//DTD SVG 1.1//EN" "http://www.w3.org/Graphics/SVG/1.1/DTD/svg11.dtd">
<svg version="1.1" id="Capa_1" xmlns="http://www.w3.org/2000/svg" xmlns:xlink="http://www.w3.org/1999/xlink" x="0px" y="0px" viewBox="0 0 1000 1000" enable-background="new 0 0 1000 1000" xml:space="preserve">
<metadata> Svg Vector Icons : http://www.onlinewebfonts.com/icon </metadata>
<g><path d="M969.4,111.3L919.1,98c-7.3-1.9-14.4,3.6-14,11.2c1.9,40.9,4.7,153.5-20.3,195C854,355.5,702.3,569,424.9,701.1c-152.2,72.5-209,93.8-229.4,98.4c-5.2,1.2-8.7,5.7-8.5,11c0.6,20.3,2.1,55.2,6.2,63.8c5.8,12.2,164.7,61.1,391.1-8.3c226.4-69.4,365.7-213.6,385-317.3c18.2-97.9,19-167.6-16.9-201.3c-3.7-3.5-5.2-8.6-3-13.1c14.5-29.9,64-142.1,27.3-217C975.3,114.3,972.5,112.2,969.4,111.3z M669.1,697.8C421.9,823.3,248.3,814.6,248.3,814.6c611.9-83,654.2-434,654.2-434l15.6,12.5C918.1,393.1,916.2,572.2,669.1,697.8z"/><path d="M867.7,308.3c0,0-10.9-18.2-21.6-18.2c-10.7,0-160.6,127-347.8,223.2c-187.1,96.2-470.8,61.4-479.9,70.6c-9.1,9.2-11.8,46.6-3.5,77.4c8.2,30.9,186.6,115.8,186.6,115.8c35.9-13,150-41,371.1-185.1C793.7,447.9,867.7,308.3,867.7,308.3z M318.3,657.2c-87.7,8.7-253.9-38.7-253.9-38.7c13.7-1.4,96.7,13.5,157.1,24.9c49.4,9.3,99.9,10.9,149.6,3.8c8.8-1.3,11.1-1.9,11.1-1.9S404.9,648.6,318.3,657.2z"/><path d="M102.6,565.2c0,0-80.1-90.9-85.1-132.4c-5-41.5,37.2-58.5,37.2-58.5S356,531.8,590.5,442.8C590.5,442.8,351.7,592.3,102.6,565.2z"/></g>
</svg>