<?xml version="1.0" encoding="utf-8"?>
<!-- Svg Vector Icons : http://www.onlinewebfonts.com/icon -->
<!DOCTYPE svg PUBLIC "-//W3C//DTD SVG 1.1//EN" "http://www.w3.org/Graphics/SVG/1.1/DTD/svg11.dtd">
<svg version="1.1" id="Capa_1" xmlns="http://www.w3.org/2000/svg" xmlns:xlink="http://www.w3.org/1999/xlink" x="0px" y="0px" viewBox="0 0 1000 1000" enable-background="new 0 0 1000 1000" xml:space="preserve">
<metadata> Svg Vector Icons : http://www.onlinewebfonts.com/icon </metadata>
<g><path d="M570.4,185.1c48.3,0,88.5-38.2,88.5-88.5C657,48.2,618.7,10,570.4,10c-48.3,0-88.5,38.2-88.5,88.5C481.9,144.8,520.1,185.1,570.4,185.1L570.4,185.1z M570.4,446.7h227.4v-88.5h-157l-98.6-150.9C526.2,181,502,167,473.8,167c-6,0-20.1,2-28.2,4l-243.5,82.5V499h88.5V323.9l88.5-34.2L202.2,990h88.5l124.8-360.2l110.7,148.9V988h82.5V710.3L483.9,501l42.3-134.8L570.4,446.7L570.4,446.7z"/></g>
</svg>