<?xml version="1.0" encoding="utf-8"?>
<!-- Svg Vector Icons : http://www.onlinewebfonts.com/icon -->
<!DOCTYPE svg PUBLIC "-//W3C//DTD SVG 1.1//EN" "http://www.w3.org/Graphics/SVG/1.1/DTD/svg11.dtd">
<svg version="1.1" id="Capa_1" xmlns="http://www.w3.org/2000/svg" xmlns:xlink="http://www.w3.org/1999/xlink" x="0px" y="0px" viewBox="0 0 1000 1000" enable-background="new 0 0 1000 1000" xml:space="preserve">
<metadata> Svg Vector Icons : http://www.onlinewebfonts.com/icon </metadata>
<g><g transform="translate(0.000000,511.000000) scale(0.100000,-0.100000)"><path d="M2996,4204.6c-578-132-1068-258.2-1091.5-281.7C1837,3852.5,100,1317.4,100,1288.1c0-20.5,1112-677.8,1150.2-677.8c8.8,0,264.1,319.8,569.2,710.1l554.5,707.1l14.7-3057.4l14.7-3060.3l82.1-70.4l82.2-70.4H5000h2432.4l82.1,70.4l82.2,70.4l14.7,3060.3l14.7,3057.4l554.6-707.1c305.1-390.2,560.4-710.1,569.2-710.1c38.1,0,1150.2,657.2,1150.2,677.8c0,26.4-1739.9,2564.4-1804.5,2634.8c-20.5,20.5-554.6,146.7-1191.2,281.7l-1156.1,243.5l-155.5-140.8c-85.1-76.3-223-176-308.1-223c-129.1-70.4-184.8-85.1-372.6-85.1c-269.9,0-410.8,61.6-669,293.4c-96.8,88-181.9,158.4-187.8,158.4C4052.3,4448.1,3574,4339.6,2996,4204.6z"/></g></g>
</svg>