<?xml version="1.0" encoding="utf-8"?>
<!-- Svg Vector Icons : http://www.onlinewebfonts.com/icon -->
<!DOCTYPE svg PUBLIC "-//W3C//DTD SVG 1.1//EN" "http://www.w3.org/Graphics/SVG/1.1/DTD/svg11.dtd">
<svg version="1.1" id="Capa_1" xmlns="http://www.w3.org/2000/svg" xmlns:xlink="http://www.w3.org/1999/xlink" x="0px" y="0px" viewBox="0 0 1000 1000" enable-background="new 0 0 1000 1000" xml:space="preserve">
<metadata> Svg Vector Icons : http://www.onlinewebfonts.com/icon </metadata>
<g><g transform="translate(0.000000,511.000000) scale(0.100000,-0.100000)"><path d="M6267.6,2776.1c-33.5-7.2-119.7-28.7-191.5-47.9c-71.8-21.5-260.9-45.5-418.9-57.4c-196.3-14.4-390.2-47.9-612.8-105.3c-339.9-88.6-526.6-107.7-1433.9-158c-651.1-35.9-938.4-79-1283.1-196.3c-275.3-91-304-95.8-392.6-69.4c-67,19.2-114.9,55.1-155.6,117.3c-62.2,95.8-347.1,268.1-440.5,268.1c-59.8,0-64.6-55.1-14.4-143.6c19.1-33.5,33.5-83.8,35.9-114.9c0-47.9-9.6-52.7-52.7-40.7c-31.1,9.6-93.3,38.3-138.8,67c-59.9,33.5-141.2,52.7-280.1,59.8c-110.1,4.8-198.7,2.4-198.7-7.2s31.1-57.4,69.4-105.3c86.2-107.7,222.6-378.2,277.7-553c23.9-71.8,62.2-172.4,88.6-222.6c26.3-52.7,38.3-112.5,31.1-138.8c-40.7-126.9-339.9-373.4-598.4-490.7c-131.7-59.8-232.2-67-354.3-19.1c-57.5,21.5-119.7-167.6-100.5-311.2c31.1-249,33.5-253.7,150.8-304c59.8-26.3,150.8-86.2,205.9-134.1c102.9-93.3,778-430.9,995.8-497.9c86.2-26.3,270.5-45.5,538.6-57.4c380.6-16.8,423.7-23.9,658.3-105.3c138.8-45.5,342.3-102.9,454.8-126.9s215.4-50.3,229.8-62.3c14.4-9.6,33.5-81.4,40.7-158c7.2-74.2,38.3-237,67-359.1c47.9-213.1,47.9-227.4,12-397.4c-21.5-95.8-69.4-222.6-107.7-280.1c-35.9-57.5-93.4-155.6-129.3-215.4l-64.6-110.1h203.5h203.5v88.6c0,100.5,83.8,203.5,117.3,146c14.4-23.9,31.1-23.9,67-4.8c40.7,21.5,50.3,57.4,62.2,258.5c16.8,294.4,52.7,428.5,100.5,390.2c57.5-47.9,162.8-292.1,165.2-383c2.4-114.9-95.8-406.9-189.1-562.5c-43.1-71.8-71.8-134-64.6-141.2c26.3-28.7,378.2-12,435.7,16.7c50.3,26.3,59.8,45.5,52.7,131.7c-4.8,98.2-4.8,100.5,55,71.8c45.5-19.1,67-19.1,98.1,7.2c35.9,28.7,38.3,71.8,26.3,356.7c-7.2,177.1-26.3,414.1-43.1,524.2c-35.9,272.9-19.2,454.8,62.2,591.3c117.3,198.7,126.9,201.1,828.3,201.1c588.9,0,620-2.4,797.1-59.8C6459.1-776.3,6629-750,7213.1-513c260.9,105.3,260.9,105.3,287.3-64.6c12-76.6,43.1-136.4,122.1-225c143.6-162.8,201.1-282.5,201.1-423.7c0-203.5-59.8-354.3-210.7-514.7c-399.8-433.3-404.6-488.3-38.3-493.1l146-2.4l57.4,148.4c64.6,162.8,112.5,196.3,191.5,124.5c62.3-57.5,105.3-14.4,153.2,153.2c57.5,193.9,208.3,500.3,308.8,627.2c69.4,86.2,83.8,122.1,71.8,174.7l-14.4,67.1l141.3-69.4c76.6-40.7,162.8-98.1,191.5-126.9c71.8-81.4,222.6-361.5,260.9-493.1c40.7-134,7.2-301.6-122.1-612.8c-45.5-112.5-83.8-227.4-83.8-251.3c0-71.8,67-83.8,227.4-43.1c79,19.2,172.4,43.1,210.6,50.3c59.9,12,64.6,21.6,64.6,119.7c0,98.2,4.8,107.7,59.8,107.7c35.9,0,74.2,23.9,98.1,62.3c38.3,57.4,38.3,69.4,2.4,186.7c-52.7,165.2-50.3,361.5,7.2,624.8c26.3,119.7,43.1,244.2,33.5,282.5c-7.2,35.9-55.1,98.2-105.3,138.9C9369.9-879.3,9212-601.6,9212-498.6c0,35.9,43.1,136.4,95.8,225C9472.9-0.7,9563.8,348.8,9583,791.6c12,287.3,76.6,406.9,191.5,363.9c31.1-12,28.7-26.3-2.4-102.9c-47.9-112.5-31.1-153.2,67-153.2c76.6,0,76.6,0,23.9,38.3l-55,38.3l52.6,81.4c76.6,126.9,19.2,272.9-112.5,272.9c-50.3,0-76.6,38.3-198.7,282.5c-165.2,325.6-258.5,428.5-600.8,651.1c-430.9,280.1-823.5,430.9-1242.4,478.8C7471.6,2766.5,6358.5,2792.8,6267.6,2776.1z"/></g></g>
</svg>