<?xml version="1.0" encoding="utf-8"?>
<!-- Svg Vector Icons : http://www.onlinewebfonts.com/icon -->
<!DOCTYPE svg PUBLIC "-//W3C//DTD SVG 1.1//EN" "http://www.w3.org/Graphics/SVG/1.1/DTD/svg11.dtd">
<svg version="1.1" id="Capa_1" xmlns="http://www.w3.org/2000/svg" xmlns:xlink="http://www.w3.org/1999/xlink" x="0px" y="0px" viewBox="0 0 1000 1000" enable-background="new 0 0 1000 1000" xml:space="preserve">
<metadata> Svg Vector Icons : http://www.onlinewebfonts.com/icon </metadata>
<g><g><path d="M787.6,21c-9.7-9.7-25.4-9.7-35.1,0L603.1,170.4L72.8,700.6c-3.3,3.3-5.6,7.5-6.6,12.1L10.6,955.9c-1.9,8.2,0.5,16.7,6.4,22.8c4.7,4.9,11.2,7.6,17.9,7.6c1.6,0,3.1-0.1,4.7-0.5l250.7-48.1c4.9-0.9,9.4-3.3,12.9-6.8l530.3-530.3l149.4-149.4c4.7-4.7,7.3-11,7.3-17.6c0-6.6-2.6-12.9-7.3-17.6L787.6,21z M422.3,741.3c-3-0.8-6.1-1.1-9.3-0.7c-12.1,1.5-28.5,1.3-37.6-7.8c-12.3-12.3-11.3-41,2.7-76.8c17-43.5,50.4-91.5,93.9-135c43.5-43.5,91.5-76.9,135-93.9c35.8-14,64.5-15,76.8-2.7c11.5,11.5,8.8,34.5,6.2,47.2c-0.2,0.7-0.1,1.4-0.2,2.2L422.3,741.3z M738.8,424.9c-4.3-16.4-12.1-27.9-19.8-35.6c-27.5-27.5-73.7-30.5-130.1-8.4c-49.8,19.5-103.7,56.8-152,105c-48.3,48.3-85.5,102.3-105,152c-22.1,56.4-19.1,102.6,8.4,130.1c7.5,7.5,19.1,15.4,35.6,19.7L273.3,890.4l-81.8,15.7c-1.4-4.1-3.7-8.1-7.3-11.9C158,868,132,841.8,107.7,813.9c-3.6-4.2-7.6-6.9-11.7-8.5l17.1-74.7l507.6-507.6l160,160L738.8,424.9z M815.8,347.9l-160-160L770.1,73.7l160,160L815.8,347.9z"/></g><g></g><g></g><g></g><g></g><g></g><g></g><g></g><g></g><g></g><g></g><g></g><g></g><g></g><g></g><g></g></g>
</svg>