<?xml version="1.0" encoding="utf-8"?>
<!-- Svg Vector Icons : http://www.onlinewebfonts.com/icon -->
<!DOCTYPE svg PUBLIC "-//W3C//DTD SVG 1.1//EN" "http://www.w3.org/Graphics/SVG/1.1/DTD/svg11.dtd">
<svg version="1.1" id="Capa_1" xmlns="http://www.w3.org/2000/svg" xmlns:xlink="http://www.w3.org/1999/xlink" x="0px" y="0px" viewBox="0 0 1000 1000" enable-background="new 0 0 1000 1000" xml:space="preserve">
<metadata> Svg Vector Icons : http://www.onlinewebfonts.com/icon </metadata>
<g><path d="M830.4,217.7l-208.5-36.9c0,0,10.3,40.9,10.2,78.3c-0.1,50.7,0.5,135.3,0.5,206.9c0,72.9-185.3,74.3-184.1-2.1c0.3-53.4-0.3-85.5-0.3-85.5h0.1c0.4-7.1,6.2-12.7,13.4-12.7c7.4,0,13.4,6,13.4,13.4c0,0,0.6,39.8,0.6,82.2c0,44.6,128.4,48.7,129.8,0.4c0.4-26,1.1-108.9,0.2-225.9C604.8,118.2,466.9,126,466.9,126H332.3C278.9,126,163,157.7,163,348v83.3v144.9v126.6c0,19.3-15.1,34.9-33.7,34.9c-18.6,0-33.7-15.6-33.7-34.9v-75.5v-13.5c0-26.4-19.2-47.8-42.8-47.8C29.2,566,10,587.4,10,613.8v75.8c0,0.7,0.1,1.4,0.1,2.1c0,1.2-0.1,2.5-0.1,3.7c0,67.7,55.8,122.5,124.6,122.5c68.8,0,124.6-54.8,124.6-122.5c0-2.3-0.1-4.5-0.2-6.8c0.1-1.3,0.2-2.6,0.2-3.9v-20.5v-47.6c0-22,18.7-39.8,41.9-39.8c23.1,0,41.9,17.8,41.9,39.8v47.6v180.6c0,16,13,29,29,29l166.4-14.5c16,0,29-13,29-29V668.6v-4.3h0.5c2-8.6,9.6-15,18.8-15h149.4c9.2,0,16.8,6.4,18.8,15h0.5v4.3v149.7c0,16,13,29,29,29l176.1,24.1c16,0,29-13,29-29V664.3c0.3,0,0.4,0,0.4,0V381.8C990,270.3,883.8,217.7,830.4,217.7L830.4,217.7z M324.3,269.1c-2.5,3.1-5.8,6.6-9.5,10.2c-4.1-3.9-9.6-6.3-15.7-6.3c-12.7,0-22.9,10.2-22.9,22.9c0,3.4,0.8,6.6,2.1,9.5c-6.8,3.1-13.5,4.9-19.6,4.6c-11-0.5-9.4-15.2-5.3-30c5.3-19.3,24.8-30.4,43.6-31.2C317.3,248,335,256,324.3,269.1L324.3,269.1z"/><path d="M849.6,219.6l-227.7-38.8c0,0,10.2,37.8,10.2,78.3l0.3,210.9c0,0-3.1,48.9-91.9,50.9c-88.8,2-95-55.3-91.9-57l-0.3-85.5c0,0,1.2-11.9,13.4-12.7c12.2-0.8,13.4,13.4,13.4,13.4l0.8,84.9c0,0,5.2,32.5,65.9,32.3c60.7-0.2,63.2-30.1,63.2-30.1l0.7-235.2c0,0,3.4-78.2-85.7-99.2c0,0-10.7-5.9-42.1-5.8L323,125.8c0,0-135.3,4.1-156.2,165.9c0,0-3.7,29.3-3.8,50.2c0,20.9-0.3,365.1-0.3,365.1s-1.5,24.1-29,30.3c0,0-30.6,4.1-37.9-30.5l-0.7-99.8c0,0-3-37.8-42.4-41.1c0,0-36.5,0-42.8,41.1l1.4,106.4c0,0,7.3,64.7,71.6,93.4c64.3,28.8,119.4-7.7,127.4-14.3c8-6.6,40.2-30.2,47-76.5c0,0,1.8-2.6,1.8-41.7l0.5-63.9c0,0,6.4-32.6,41.4-33.6c35-1.1,41.4,33.7,41.4,33.7v237.6c0,0,7.5,31.5,36.1,25.2L543.3,859c0,0,24.1-5.1,24.1-28.5c0-23.5,0-166.2,0-166.2s4.9-15,19.3-15s152.2,0.2,152.2,0.2s11.4,1.4,16.5,14.8c5.1,13.4-0.5,0-0.5,0l0.7,157.5c0,0,2.2,27.6,36.9,26.6l137,18.8l31,4.3c0,0,28.5-3.3,29-29v-473C989.6,369.5,984.2,248.7,849.6,219.6z M326.4,266l-11.6,13.3C301.3,267.5,286,277,286,277c-16.1,10.1-7.8,28.4-7.8,28.4l-13.3,4.2c-7.5,1.9-12.9-3.2-12.9-3.2c-5.7-21.3,8.6-40.4,8.6-40.4c23.1-25.1,55.5-14.9,55.5-14.9C332.1,256,326.4,266,326.4,266z"/></g>
</svg>