<?xml version="1.0" encoding="utf-8"?>
<!-- Svg Vector Icons : http://www.onlinewebfonts.com/icon -->
<!DOCTYPE svg PUBLIC "-//W3C//DTD SVG 1.1//EN" "http://www.w3.org/Graphics/SVG/1.1/DTD/svg11.dtd">
<svg version="1.1" id="Capa_1" xmlns="http://www.w3.org/2000/svg" xmlns:xlink="http://www.w3.org/1999/xlink" x="0px" y="0px" viewBox="0 0 1000 1000" enable-background="new 0 0 1000 1000" xml:space="preserve">
<metadata> Svg Vector Icons : http://www.onlinewebfonts.com/icon </metadata>
<g><g transform="translate(0.000000,512.000000) scale(0.100000,-0.100000)"><path d="M603.9,4983.4c-32.5-21.1-68.9-65.1-82.3-99.5c-15.3-44-21.1-1316.8-21.1-4767.7c0-5154.3-7.7-4804.1,112.9-4865.3c51.7-26.8,493.8-30.6,4384.9-30.6c4798.3,0,4413.6-11.5,4471,124.4c40.2,99.5,40.2,9451.2,0,9550.7c-57.4,135.9,329.2,124.4-4474.8,124.4C770.4,5019.8,661.3,5017.8,603.9,4983.4z M9075.1,120v-4497.8H4998.4H921.6V120v4497.8h4076.8h4076.7V120z"/><path d="M1421.2,4170c-101.4-55.5-95.7,116.7-97.6-3242.3v-3127.4l65.1-65.1l65.1-65.1h3544.7H8543l65.1,65.1l65.1,65.1V922c0,3397.3,5.7,3202.1-105.3,3251.8C8491.4,4210.2,1484.3,4206.3,1421.2,4170z M8267.4,939.2l-5.7-2857.5l-606.7-5.7l-608.6-3.8v233.5c0,457.4-65.1,767.5-229.7,1096.7c-111,222-285.2,451.7-461.3,606.7c-139.7,122.5-426.8,308.1-526.3,340.7l-65.1,23l120.6,132.1c457.4,493.8,447.9,1230.7-23,1703.4c-482.3,482.3-1244.1,482.3-1726.4,0c-468.9-470.8-482.3-1209.6-26.8-1699.6l124.4-134l-82.3-32.5c-120.6-45.9-409.6-237.3-543.6-361.7c-227.8-212.4-432.6-528.3-534-819.2c-82.3-243.1-107.2-394.3-116.8-750.3l-11.5-338.8l-604.8,3.8l-604.8,5.7l-5.7,2857.5l-3.8,2855.6h3272.9h3272.9L8267.4,939.2z M5134.3,2148.8c348.3-67,612.5-338.8,669.9-687.1c53.6-340.7-137.8-698.6-457.4-849.8c-120.6-57.4-139.7-61.3-348.3-61.3s-227.8,3.8-348.3,61.3c-241.2,112.9-413.4,346.4-457.4,616.3c-53.6,336.9,139.7,700.5,451.7,846C4824.2,2158.4,4965.8,2179.4,5134.3,2148.8z M5448.2,53c438.3-128.2,802-430.6,1004.8-834.5c130.1-256.5,157-380.9,166.5-777.1l9.6-350.3H4998.4H3367.7l9.6,350.3c9.6,405.8,28.7,491.9,164.6,769.4c229.7,465.1,643.1,779,1159.9,882.4C4906.5,133.4,5233.8,116.2,5448.2,53z"/></g></g>
</svg>