<?xml version="1.0" encoding="utf-8"?>
<!-- Svg Vector Icons : http://www.onlinewebfonts.com/icon -->
<!DOCTYPE svg PUBLIC "-//W3C//DTD SVG 1.1//EN" "http://www.w3.org/Graphics/SVG/1.1/DTD/svg11.dtd">
<svg version="1.1" id="Capa_1" xmlns="http://www.w3.org/2000/svg" xmlns:xlink="http://www.w3.org/1999/xlink" x="0px" y="0px" viewBox="0 0 1000 1000" enable-background="new 0 0 1000 1000" xml:space="preserve">
<metadata> Svg Vector Icons : http://www.onlinewebfonts.com/icon </metadata>
<g><g transform="translate(0.000000,511.000000) scale(0.100000,-0.100000)"><path d="M4057.4,4995.5c-733.4-76.7-1451.4-467.6-1908.9-1040c-196.8-247.9-442.1-733.4-518.7-1024.7c-86.9-339.9-115-695.1-81.8-1011.9c30.7-263.2,109.9-595.4,194.2-794.7l38.3-92l237.7-17.9c465.1-33.2,983.8,58.8,1344.1,240.2c388.4,196.8,598,406.3,1137.1,1126.9c247.9,329.6,511.1,646.5,656.7,792.2c337.3,339.9,735.9,595.4,1149.9,741.1c92,33.2,176.3,66.4,186.5,76.7c33.2,28.1-378.2,401.2-605.6,549.4C5337.7,4898.4,4686.1,5061.9,4057.4,4995.5z"/><path d="M6459.5,3498.1c-580.1-219.8-1022.1-585.2-1482.1-1216.4c-585.2-804.9-902-1147.3-1267.5-1359.5c-385.9-227.4-756.4-327.1-1293-347.5c-398.6-17.9-388.4-5.1-196.8-222.3L2330,229.7l472.7,12.8c419.1,10.2,503.4,20.4,700.2,79.2c592.8,178.9,884.2,424.2,1538.3,1305.8c416.5,562.2,776.8,945.5,1073.3,1139.7c214.6,143.1,536.6,306.6,723.2,368c153.3,48.5,153.3,48.5,28.1,301.5C6776.4,3610.5,6763.6,3613,6459.5,3498.1z"/><path d="M6945,2703.3c-546.9-201.9-1017-608.2-1546-1333.9c-368-506-531.5-705.3-746.2-907.2C4238.9,73.8,3853-105,3229.5-191.9l-306.6-43.4l235.1-112.4c345-163.5,661.9-237.7,1078.4-253c393.5-15.3,654.2,20.4,1032.4,148.2c125.2,40.9,230,71.5,232.6,69c28.1-40.9,1193.4-2540,1254.7-2695.9c117.6-288.8,207-600.5,268.3-950.6c30.7-163.5,69-327.1,89.4-365.4c63.9-122.7,194.2-253,316.9-314.3c477.9-242.8,1037.5,94.6,1034.9,623.5c-2.5,273.4-35.8,329.6-411.4,720.6c-186.6,196.8-414,454.8-506,577.5c-92,120.1-493.2,766.6-894.4,1436.1L5922.9-135.7l84.3,61.3c181.4,140.5,511.1,480.4,633.7,659.3c176.3,255.5,345,621,424.2,919.9c58.8,219.7,66.4,301.5,69,672.1c2.5,434.4-12.8,564.7-69,559.6C7049.8,2736.5,6993.6,2721.2,6945,2703.3z"/></g></g>
</svg>