<?xml version="1.0" encoding="utf-8"?>
<!-- Svg Vector Icons : http://www.onlinewebfonts.com/icon -->
<!DOCTYPE svg PUBLIC "-//W3C//DTD SVG 1.1//EN" "http://www.w3.org/Graphics/SVG/1.1/DTD/svg11.dtd">
<svg version="1.1" id="Capa_1" xmlns="http://www.w3.org/2000/svg" xmlns:xlink="http://www.w3.org/1999/xlink" x="0px" y="0px" viewBox="0 0 1000 1000" enable-background="new 0 0 1000 1000" xml:space="preserve">
<metadata> Svg Vector Icons : http://www.onlinewebfonts.com/icon </metadata>
<g><g transform="translate(0.000000,511.000000) scale(0.100000,-0.100000)"><path d="M7435.7,2765.2c30.6-16.3,55.1-32.7,55.1-34.7c0-8.2-128.6,2-204.2,16.3c-55.1,10.2-65.3,8.2-40.8-10.2c24.5-18.4,6.1-20.4-77.6-10.2c-118.4,16.3-467.5-10.2-402.2-28.6c22.5-6.1-36.7-16.3-132.7-22.5c-153.1-10.2-165.4-14.3-102.1-30.6l71.5-18.4l-61.3-24.5c-32.7-14.3-87.8-28.6-122.5-28.6l-61.3-4.1l71.4-26.5l71.5-26.5l-112.3-8.2c-104.1-8.2-108.2-10.2-47-24.5c98-24.5,61.3-53.1-71.5-55.1c-112.3-2-114.3-2-49-24.5l67.4-20.4l-77.6-36.8c-71.5-34.7-71.5-36.7-16.3-24.5c79.6,14.3,44.9-26.5-38.8-47c-47-10.2-55.1-8.2-42.9,14.3c12.2,22.5,10.2,24.5-12.2,4.1c-14.3-14.3-69.4-26.5-122.5-26.5c-112.3,0-149.1-30.6-57.2-49c42.9-8.2,57.2-20.4,44.9-36.8c-8.2-14.3-12.2-42.9-10.2-61.3c6.1-34.7-38.8-36.7-704.4-36.7c-390-2-773.8-10.2-853.4-20.4c-116.4-14.3-175.6-10.2-326.7,22.5c-169.5,38.8-208.3,38.8-520.6,18.4c-877.9-59.2-1212.7-194-1482.3-592.1c-179.7-263.4-371.6-859.5-424.7-1304.6c-28.6-242.9-38.8-283.8-104.1-402.2c-102.1-181.7-287.9-375.7-443-459.4C975.9-719.9,955.5-724,781.9-724c-234.8,0-263.4,20.4-283.8,196c-12.3,102.1-24.5,128.6-83.7,181.7c-61.3,53.1-87.8,61.3-183.7,61.3H116.3l6.1-89.8c4.1-49,2-85.8-6.1-79.6c-10.2,4.1-16.3,0-16.3-12.3c0-10.2,10.2-26.5,20.4-32.7c12.3-8.2,16.3-22.5,8.2-32.7c-6.1-12.2,8.2-44.9,34.7-71.5c42.9-47,44.9-49,8.2-36.7c-59.2,20.4,149-167.4,245-222.5c69.4-38.8,112.3-44.9,275.6-44.9c196,2,371.6,32.7,475.7,85.8c55.1,28.6,57.2,26.5,36.8-12.3c-12.3-22.5-71.5-81.7-130.7-134.7l-108.2-91.9l-22.5-281.7c-14.3-153.1-18.4-304.2-12.2-334.8c6.1-30.6-8.2-102.1-30.6-165.4c-38.8-102.1-40.8-136.8-26.5-365.5c16.3-261.3,36.8-332.8,98-351.2c20.4-6.1,167.4-14.3,324.6-16.3c261.3-6.1,294-2,332.8,32.7c59.2,53.1,53.1,112.3-18.4,200.1c-57.2,69.4-73.5,75.5-179.7,81.7l-116.4,6.1l2,255.2c0,236.8,6.1,267.5,65.3,420.6c87.8,222.5,171.5,343,308.3,441c63.3,47,202.1,159.2,308.3,251.1c106.2,91.9,271.5,224.6,367.5,294c96,69.4,224.6,167.4,285.8,216.4c61.3,51,118.4,91.9,124.5,91.9c6.1,0,57.2-116.4,110.2-259.3c53.1-145,145-353.2,200.1-465.5L3189-1214l-4.1-287.9c-2-163.3,4.1-324.6,18.4-373.6c18.4-73.5,38.8-91.9,169.5-167.4c81.7-47,271.5-159.2,422.6-251.1l275.6-165.4l316.5-6.1c296-6.1,320.5-4.1,365.5,34.7c26.5,24.5,65.3,42.9,83.7,42.9s38.8,6.1,47,12.2c20.4,20.4-83.7,208.3-126.6,232.8c-61.3,30.6-169.5,24.5-338.9-22.5c-187.8-51-165.4-61.3-453.3,218.5c-196,191.9-206.2,208.3-232.7,324.6c-34.7,167.4-32.7,273.6,10.2,490c24.5,120.4,40.8,318.5,47,575.8l12.2,392l87.8-61.3c142.9-98,375.7-200.1,528.8-232.7c400.2-83.7,714.6-53.1,1014.7,100c151.1,77.6,202.1,93.9,296,93.9c81.7,0,126.6-10.2,163.3-40.8c28.6-22.5,63.3-40.8,75.5-40.8c12.2,0,42.9-16.3,69.4-36.7c44.9-34.7,44.9-38.8,14.3-100c-26.5-53.1-30.6-147-26.5-590c6.1-508.4,4.1-532.9-40.8-649.2l-47-120.4l42.9-44.9c30.6-32.7,40.8-71.5,40.8-149c0-71.5,16.3-138.8,49-204.2c26.5-53.1,59.2-128.6,71.5-169.5c42.9-130.7,69.4-142.9,367.5-155.2c304.2-10.2,402.2,8.2,422.6,85.8c8.2,32.7-2,69.4-30.6,108.2c-71.5,100-102.1,116.4-234.8,116.4h-124.5l-55.1,102.1c-51,91.9-57.2,122.5-57.2,298.1c0,204.2,34.7,375.7,151.1,745.2c51,159.2,130.7,273.6,149,218.5c6.1-16.3,47-26.5,106.2-26.5c79.6,0,140.9-22.5,351.2-136.8c463.5-247,600.3-336.9,606.4-396.1c8.2-61.3,42.9-98,183.8-189.9c71.5-47,112.3-93.9,157.2-185.8c55.1-110.3,71.5-126.6,173.5-169.5c96-38.8,134.7-44.9,265.4-34.7c83.7,8.2,169.5,18.4,189.9,22.5c42.9,12.3,106.2,132.7,124.6,236.8c16.3,93.9,2,108.2-292,285.8c-171.5,104.1-238.9,159.2-343,281.7c-206.2,240.9-206.2,242.9-492,500.2c-147,134.7-269.5,249.1-269.5,255.2c0,6.1,47,83.7,102.1,173.5c67.4,106.2,110.3,202.1,126.6,279.7c26.5,128.6,47,147,77.6,67.4c28.6-75.5,53.1-61.3,44.9,26.5l-6.1,75.5l40.8-51c22.5-28.6,42.9-73.5,42.9-102.1c0-40.8,4.1-44.9,20.4-20.4c10.2,16.3,14.3,49,8.2,71.5c-12.3,38.8-12.3,38.8,28.6-2.1c22.5-24.5,44.9-65.3,51-91.9c6.1-38.8,10.2-32.7,12.3,18.4c2,77.6,38.8,79.6,75.5,6.1l24.5-47l14.3,42.9c16.3,53.1,51,36.8,53.1-24.5c2.1-40.8,4.1-40.8,18.4,6.1l16.3,51l4.1-51c4.1-51,4.1-51,30.6,10.2c16.3,34.7,28.6,47,30.6,30.6c0-22.5,12.2-16.3,40.8,18.4l40.8,47V27.4c0-32.7-16.3-79.6-34.7-106.2c-18.4-28.6-22.5-42.9-8.2-34.7c14.3,10.2,42.9,44.9,65.3,81.7c42.9,69.4,53.1,32.7,18.4-59.2c-12.2-30.6-12.2-49-2-40.8c10.2,6.1,30.6,44.9,44.9,87.8c24.5,77.6,96,181.7,114.3,171.5c6.1-4.1,18.4,4.1,28.6,18.4c32.7,53.1,38.8,2,8.2-69.4c-47-110.3-14.3-91.9,36.7,22.4c26.5,61.3,44.9,83.7,51,61.3c4.1-18.4-4.1-53.1-14.3-75.5c-26.5-49-28.6-79.6-4.1-53.1c10.2,12.2,28.6,57.2,42.9,102.1c22.5,67.4,28.6,75.5,40.8,40.8c14.3-34.7,18.4-30.6,34.7,28.6c28.6,106.2,67.4,104.1,67.4-2l2-87.8L8918,205c20.4,51,53.1,120.4,73.5,153.1l34.7,61.3l-10.2-91.9c-10.2-83.7-8.2-87.8,18.4-51c16.3,22.5,40.8,77.6,53.1,122.5c20.4,75.5,24.5,77.6,34.7,30.6c14.3-49,14.3-49,40.8,16.3c28.6,69.4,53.1,81.7,69.4,40.8c6.1-14.3,12.3-8.2,12.3,16.3c2,38.8,18.4,44.9,157.2,55.1c147,10.2,161.3,16.3,234.8,87.8c42.9,40.8,87.8,104.1,102.1,138.8c14.3,34.7,55.1,91.9,91.9,128.6c38.8,36.7,69.4,83.7,69.4,106.2s-63.3,110.3-142.9,194c-85.8,93.9-142.9,171.5-142.9,200.1c0,24.5-18.4,63.3-40.8,87.8s-63.3,100-89.8,169.5c-28.6,69.4-77.6,165.4-110.2,216.4c-32.7,49-71.5,122.5-85.8,163.3c-12.2,38.8-32.7,77.6-42.9,83.7c-10.2,8.2-18.4,49-18.4,93.9c0,93.9-59.2,198-173.5,304.2c-65.3,59.2-75.5,63.3-63.3,24.5c22.5-65.3-8.2-55.1-108.2,36.7c-100,93.9-204.2,151.1-308.3,171.5l-71.5,12.3l96-59.2c132.7-85.8,142.9-116.4,14.3-51l-110.3,53.1l51-55.1l51-57.2l-81.7,53.1c-44.9,30.6-102.1,55.1-128.6,55.1c-24.5,0-51,14.3-57.2,30.6c-8.2,16.3-30.6,30.6-55.1,30.6c-38.8,0-40.8-2.1-4.1-40.8c42.9-49,36.7-49-53.1-12.2c-38.8,14.3-114.3,32.7-167.4,38.8l-100,10.2l69.4-59.2c79.6-69.4,71.5-71.5-47-20.4c-89.8,38.8-298.1,61.3-338.9,36.8c-10.2-6.1-55.1,6.1-100,26.5C7443.9,2806,7343.8,2814.2,7435.7,2765.2z"/></g></g>
</svg>