<?xml version="1.0" encoding="utf-8"?>
<!-- Svg Vector Icons : http://www.onlinewebfonts.com/icon -->
<!DOCTYPE svg PUBLIC "-//W3C//DTD SVG 1.1//EN" "http://www.w3.org/Graphics/SVG/1.1/DTD/svg11.dtd">
<svg version="1.1" id="Capa_1" xmlns="http://www.w3.org/2000/svg" xmlns:xlink="http://www.w3.org/1999/xlink" x="0px" y="0px" viewBox="0 0 1000 1000" enable-background="new 0 0 1000 1000" xml:space="preserve">
<metadata> Svg Vector Icons : http://www.onlinewebfonts.com/icon </metadata>
<g><g><path d="M846.5,153.5C753.9,61,630.9,10,500,10c-130.9,0-253.9,51-346.5,143.5C61,246.1,10,369.1,10,500c0,130.9,51,253.9,143.5,346.5C246.1,939,369.1,990,500,990c130.9,0,253.9-51,346.5-143.5C939,753.9,990,630.9,990,500C990,369.1,939,246.1,846.5,153.5z M799.1,799.2c-68.4,68.4-156.2,110.5-251,121.2c-0.7-16.4-2.1-32.8-4.4-48.9l-66.3,9.5c2,13.8,3.2,27.7,3.8,41.7c-106-4.6-204.9-48-280.4-123.5C125.4,723.7,82,624.7,77.4,518.8c14,0.6,27.9,1.8,41.7,3.8l9.5-66.3c-16.2-2.3-32.6-3.7-48.9-4.4c10.7-94.8,52.7-182.6,121.2-251c68.4-68.4,156.2-110.5,251-121.2c0.7,16.4,2.1,32.7,4.4,48.9l66.3-9.5c-2-13.8-3.2-27.8-3.8-41.7c105.9,4.6,204.9,48,280.4,123.5c75.5,75.5,118.9,174.4,123.5,280.4c-14-0.6-27.9-1.8-41.7-3.8l-9.5,66.3c16.2,2.3,32.5,3.8,48.9,4.5C909.6,642.9,867.6,730.7,799.1,799.2z"/><path d="M405.2,594.8c-17.1-17.1-35.6-33.1-54.9-47.4l-39.9,53.8c16.7,12.4,32.7,26.2,47.5,41c14.8,14.8,28.6,30.8,40.9,47.4l53.8-39.9C438.2,630.4,422.3,612,405.2,594.8z"/><path d="M422,724.3c21.5,35.9,37.5,74.7,47.5,115.5l65-16c-11.6-47.2-30.1-92.3-55-133.9L422,724.3z"/><path d="M160.1,530.6c40.7,10,79.6,26,115.5,47.5l34.4-57.5c-41.6-24.9-86.7-43.4-133.9-55L160.1,530.6z"/><path d="M530.6,160.2l-65,16c11.6,47.2,30.1,92.3,55,133.9l57.4-34.4C556.6,239.8,540.6,200.9,530.6,160.2z"/><path d="M690,479.4c41.6,24.9,86.7,43.4,133.9,55l16-65c-40.7-10-79.6-26-115.5-47.5L690,479.4z"/><path d="M601.2,310.4l-53.8,39.9c14.3,19.3,30.3,37.7,47.4,54.8c17.1,17.1,35.6,33.1,54.9,47.4l39.9-53.8c-16.7-12.4-32.7-26.2-47.5-41C627.4,343,613.6,327.1,601.2,310.4z"/></g><g></g><g></g><g></g><g></g><g></g><g></g><g></g><g></g><g></g><g></g><g></g><g></g><g></g><g></g><g></g></g>
</svg>