<?xml version="1.0" encoding="iso-8859-1"?>
<!-- Generator: Adobe Illustrator 18.0.0, SVG Export Plug-In . SVG Version: 6.00 Build 0)  -->
<!DOCTYPE svg PUBLIC "-//W3C//DTD SVG 1.1//EN" "http://www.w3.org/Graphics/SVG/1.1/DTD/svg11.dtd">
<svg version="1.1" id="Capa_1" xmlns="http://www.w3.org/2000/svg" xmlns:xlink="http://www.w3.org/1999/xlink" x="0px" y="0px"
	 viewBox="0 0 59.137 59.137" style="enable-background:new 0 0 59.137 59.137;" xml:space="preserve">
<path d="M47.816,37.376c-0.603-1.865-1.604-3.588-2.573-5.254c-0.343-0.591-0.685-1.177-1.003-1.764
	c-0.277-0.511-0.564-1.023-0.854-1.54c-1.128-2.016-2.294-4.1-2.976-6.233c-0.437-1.368-0.819-2.795-1.188-4.175
	c-0.35-1.308-0.712-2.66-1.125-3.982c-0.155-0.497-0.301-1.012-0.448-1.532c-0.429-1.518-0.873-3.087-1.615-4.493
	c-1.235-2.337-3.774-3.81-6.443-3.797l0.007,0.618c-0.018-0.052-0.036-0.104-0.055-0.156l0.005-0.461c-0.027,0-0.053,0-0.081,0
	c-0.033,0-0.065,0.006-0.097,0.007c-0.684-1.718-1.807-3.607-3.6-4.508c-0.495-0.247-1.095-0.049-1.342,0.445
	c-0.248,0.493-0.049,1.094,0.445,1.342c0.938,0.471,1.806,1.575,2.466,3.049c-1.794,0.557-3.348,1.787-4.233,3.462
	c-0.743,1.406-1.187,2.976-1.616,4.494c-0.147,0.52-0.292,1.034-0.447,1.53c-0.413,1.321-0.774,2.672-1.125,3.979
	c-0.37,1.381-0.752,2.809-1.189,4.178c-0.682,2.135-1.849,4.219-2.977,6.236c-0.289,0.515-0.575,1.027-0.852,1.537
	c-0.319,0.586-0.66,1.173-1.003,1.764c-0.969,1.666-1.97,3.389-2.573,5.253c-1.053,3.259-0.953,6.931,0.283,10.339
	c2.08,5.735,7.432,9.99,13.967,11.102c1.246,0.212,2.541,0.32,3.9,0.32c0.08,0,0.161,0,0.243,0c1.309,0,2.604-0.108,3.85-0.32
	c6.535-1.113,11.887-5.367,13.966-11.102C48.768,44.307,48.869,40.635,47.816,37.376z M16.767,41.227
	c0.084-1.041,0.26-2.097,0.523-3.141c0.136-0.536,0.68-0.857,1.215-0.725c0.535,0.135,0.86,0.679,0.725,1.215
	c-0.236,0.936-0.395,1.881-0.47,2.812c-0.042,0.523-0.479,0.919-0.996,0.919c-0.027,0-0.054-0.001-0.082-0.003
	C17.133,42.26,16.723,41.778,16.767,41.227z M25.439,51.816c-0.108,0.461-0.519,0.771-0.972,0.771c-0.076,0-0.153-0.008-0.23-0.027
	c-3.006-0.708-5.405-2.65-6.583-5.331c-0.222-0.506,0.008-1.096,0.513-1.318c0.507-0.221,1.096,0.008,1.318,0.513
	c0.922,2.1,2.821,3.626,5.209,4.189C25.233,50.741,25.566,51.279,25.439,51.816z M32.243,10.289
	c-0.857,0.857-1.964,1.293-3.029,1.293c-0.928,0-1.824-0.331-2.495-1.002c-0.391-0.391-0.391-1.023,0-1.414s1.023-0.391,1.414,0
	c0.302,0.302,0.728,0.453,1.217,0.416c0.536-0.038,1.061-0.289,1.479-0.707c0.391-0.391,1.023-0.391,1.414,0
	S32.634,9.899,32.243,10.289z"/>
<g>
</g>
<g>
</g>
<g>
</g>
<g>
</g>
<g>
</g>
<g>
</g>
<g>
</g>
<g>
</g>
<g>
</g>
<g>
</g>
<g>
</g>
<g>
</g>
<g>
</g>
<g>
</g>
<g>
</g>
</svg>
