<?xml version="1.0" encoding="utf-8"?>
<!-- Svg Vector Icons : http://www.onlinewebfonts.com/icon -->
<!DOCTYPE svg PUBLIC "-//W3C//DTD SVG 1.1//EN" "http://www.w3.org/Graphics/SVG/1.1/DTD/svg11.dtd">
<svg version="1.1" id="Capa_1" xmlns="http://www.w3.org/2000/svg" xmlns:xlink="http://www.w3.org/1999/xlink" x="0px" y="0px" viewBox="0 0 1000 1000" enable-background="new 0 0 1000 1000" xml:space="preserve">
<metadata> Svg Vector Icons : http://www.onlinewebfonts.com/icon </metadata>
<g><g transform="translate(0.000000,512.000000) scale(0.100000,-0.100000)"><path d="M7323.8,4933.6c-128.5-103.6-260.9-278.1-339.5-441.2c-55.6-118.9-134.3-381.7-134.3-452.7c0-28.8-28.8-17.3-147.7,59.5c-82.5,51.8-230.2,120.8-331.8,155.4c-163,55.6-207.2,63.3-406.7,63.3c-159.2,1.9-232.1-5.8-249.4-23c-17.3-17.3-26.9-95.9-30.7-234c-7.7-241.7,30.7-414.3,138.1-629.2c214.8-425.8,661.8-788.4,1083.8-878.5c141.9-28.8,358.7-34.5,466.1-9.6c71,17.3,72.9,17.3,59.5-34.5c-24.9-88.2-13.4-391.3,21.1-519.8c69-272.4,249.4-567.8,468-771.1c312.7-289.6,661.8-427.8,1039.7-414.3c105.5,1.9,199.5,15.3,211,26.9c34.5,34.5,46,282,19.2,443.1c-30.7,193.7-103.6,383.6-216.7,558.2c-69.1,105.5-82.5,138.1-57.5,138.1c163,0,567.8,174.6,732.8,314.6c94,82.5,251.3,257,251.3,280.1s-157.3,197.6-249.4,276.2c-170.7,145.8-445,266.6-694.4,308.8l-69.1,11.5l67.1,99.7c88.2,128.5,166.9,299.2,209.1,456.5c42.2,153.5,49.9,539,11.5,577.4c-17.3,17.3-90.2,24.9-249.4,24.9c-182.2,0-251.3-9.6-368.3-44.1c-168.8-53.7-301.2-118.9-425.8-207.2l-88.2-63.3l-32.6,147.7c-44.1,195.7-90.2,310.8-193.7,477.6c-74.8,120.8-331.9,389.4-372.1,389.4C7435.1,5019.9,7381.4,4981.6,7323.8,4933.6z"/><path d="M4389,2781.4c-7.7-5.8-13.4-333.8-13.4-728.9V1337h613.8h613.8v669.5v671.4l-105.5,28.8c-191.8,57.5-473.8,88.2-788.4,88.2C4540.5,2794.8,4394.7,2789.1,4389,2781.4z"/><path d="M3452.9,2491.7c-337.6-168.8-588.9-335.7-784.6-516L2534.1,1851v-257v-257h613.8h613.8v652.2c0,358.7-3.8,652.2-5.8,652.2C3752.1,2641.4,3615.9,2574.2,3452.9,2491.7z"/><path d="M6217,1876v-539h539h537.1l-72.9,140c-59.5,113.2-132.3,197.6-399,466.1c-272.4,272.4-349.1,337.6-464.2,399l-140,71V1876z"/><path d="M1151,479.5C740.5,63.3,602.4-113.2,464.3-383.7l-59.5-120.8h757.7h757.7v613.8v613.8h-264.7h-262.8L1151,479.5z"/><path d="M2534.1,109.3v-613.8h613.8h613.8v613.8v613.8h-613.8h-613.8V109.3z"/><path d="M4375.5,109.3v-613.8h613.8h613.8v613.8v613.8h-613.8h-613.8V109.3z"/><path d="M6217,109.3v-613.8l725.1,3.8l723.2,5.8l5.8,310.7c5.8,322.3-23,594.6-82.5,801.8l-30.7,105.5h-671.4H6217V109.3z"/><path d="M157.4-1189.3c-46-176.5-63.3-406.7-55.6-748.1c3.8-197.6,13.4-372.1,21.1-383.6c11.5-19.2,214.8-24.9,907.3-24.9h890v613.8v613.8h-872.8H176.6L157.4-1189.3z"/><path d="M2534.1-1732.2V-2346h613.8h613.8v613.8v613.8h-613.8h-613.8V-1732.2z"/><path d="M4375.5-1732.2V-2346h613.8h613.8v613.8v613.8h-613.8h-613.8V-1732.2z"/><path d="M6217-1732.2V-2346h257.1h257l117,124.7c207.2,220.6,412.4,544.8,587,916.9l84.4,186.1h-650.3H6217V-1732.2z"/><path d="M368.4-3078.8c151.5-301.2,356.8-600.4,554.4-809.5c191.8-205.2,546.7-456.5,878.5-623.4l118.9-59.5v805.6v805.7h-805.6H308.9L368.4-3078.8z"/><path d="M2534.1-3849.9c0-690.6,5.8-895.8,23-907.3c13.4-7.7,180.3-17.3,372.1-21.1c329.9-7.7,592.7,11.5,761.5,55.6l71,19.2v870.9v872.8h-613.8h-613.8V-3849.9z"/><path d="M4375.5-3717.5v-757.7l101.7,49.9c280.1,142,452.7,276.2,853.6,667.6l272.4,266.6v266.6v264.7h-613.8h-613.8V-3717.5z"/></g></g>
</svg>